# xmcd
#
# Track frame offsets:
#	150
#	21985
#	42245
#	63502
#	80410
#	101462
#	122977
#	136362
#	153679
#	167105
#	187541
#	210526
#	231022
#	250214
#	270727
#	288506
#	304978
#
# Disc length: 4332
#
# Revision: 2
# Processed by: cddbd v1.5.1PL0 Copyright (c) Steve Scherf et al.
# Submitted via: audiograbber 1.80
# Normalized: r1:DSETVAR1
#
DISCID=f010ea11
DTITLE=Various Artist - Romantic 2001 - The Best Hits
DYEAR=1900
DGENRE=
TTITLE0=Chayanne - Yo Te Amo
TTITLE1=Gloria Estefan - Como Duele Perderte
TTITLE2=Paulina Rubio - Lo Haria Por Ti
TTITLE3=Chayanne - Simplemente
TTITLE4=Eros Ramazzoti - Un Angel No Es
TTITLE5=Paulina Rubio - El Ultimo Adios
TTITLE6=Alejandro Fernandez - Es La Mujer
TTITLE7=Laura Pausini - Entre Tu Y Mil Amores
TTITLE8=Luis Miguel - La Bikina
TTITLE9=Natalia Oreiro - Un Ramo De Violeta
TTITLE10=Ricky Martin - Nobody Want's To Be Lonely
TTITLE11=Ricardo Arjona - Cuando
TTITLE12=Eros Ramazzoti - Duo con Cher
TTITLE13=Ricky Martin - Ven A Mi
TTITLE14=Eros Ramazzoti - Para Ti Sera Por Siempre
TTITLE15=Natalia Oreiro - Estamos Todos Solos
TTITLE16=Elvis Crespo - No Te Olvidaras
EXTD=
EXTT0=
EXTT1=
EXTT2=
EXTT3=
EXTT4=
EXTT5=
EXTT6=
EXTT7=
EXTT8=
EXTT9=
EXTT10=
EXTT11=
EXTT12=
EXTT13=
EXTT14=
EXTT15=
EXTT16=
PLAYORDER=
